HIERARCHY
ROOT Hips
{
	OFFSET 0.00000 0.00000 0.00000
	CHANNELS 6 Xposition Yposition Zposition Zrotation Yrotation Xrotation 
	JOINT LHipJoint
	{
		OFFSET 0 0 0
		CHANNELS 3 Zrotation Yrotation Xrotation
		JOINT LeftHip
		{
			OFFSET 1.74857 -1.85566 0.69197
			CHANNELS 3 Zrotation Yrotation Xrotation
			JOINT LeftKnee
			{
				OFFSET 2.40003 -6.59403 0.00000
				CHANNELS 3 Zrotation Yrotation Xrotation
				JOINT LeftAnkle
				{
					OFFSET 2.82169 -7.75254 0.00000
					CHANNELS 3 Zrotation Yrotation Xrotation
					JOINT LeftToe
					{
						OFFSET 0.16466 -0.45240 2.26890
						CHANNELS 3 Zrotation Yrotation Xrotation
						End Site
						{
							OFFSET 0.00000 -0.00000 1.16486
						}
					}
				}
			}
		}
	}
	JOINT RHipJoint
	{
		OFFSET 0 0 0
		CHANNELS 3 Zrotation Yrotation Xrotation
		JOINT RightHip
		{
			OFFSET -1.64169 -1.85566 0.69197
			CHANNELS 3 Zrotation Yrotation Xrotation
			JOINT RightKnee
			{
				OFFSET -2.41814 -6.64379 0.00000
				CHANNELS 3 Zrotation Yrotation Xrotation
				JOINT RightAnkle
				{
					OFFSET -2.80588 -7.70911 0.00000
					CHANNELS 3 Zrotation Yrotation Xrotation
					JOINT RightToe
					{
						OFFSET -0.19098 -0.52472 2.25401
						CHANNELS 3 Zrotation Yrotation Xrotation
						End Site
						{
							OFFSET -0.00000 -0.00000 1.16333
						}
					}
				}
			}
		}
	}
	JOINT lowerback
	{
		OFFSET 0 0 0
		CHANNELS 3 Zrotation Yrotation Xrotation
		JOINT Chest
		{
			OFFSET -0.02828 2.14690 -0.11061
			CHANNELS 3 Zrotation Yrotation Xrotation
			JOINT Chest2
			{
				OFFSET -0.00167 2.15299 0.00759
				CHANNELS 3 Zrotation Yrotation Xrotation
				JOINT lowerneck
				{
					OFFSET 0 0 0
					CHANNELS 3 Zrotation Yrotation Xrotation
					JOINT Neck
					{
						OFFSET -0.09296 1.90118 0.07197
						CHANNELS 3 Zrotation Yrotation Xrotation
						JOINT Head
						{
							OFFSET 0.08490 1.89526 -0.24604
							CHANNELS 3 Zrotation Yrotation Xrotation
							End Site
							{
								OFFSET 0.03186 1.92109 -0.09483
							}
						}
					}
				}
				JOINT LeftCollar
				{
					OFFSET 0 0 0
					CHANNELS 3 Zrotation Yrotation Xrotation
					JOINT LeftShoulder
					{
						OFFSET 3.21569 1.44644 -0.03720
CHANNELS 3 Zrotation Xrotation Yrotation
						JOINT LeftElbow
						{
OFFSET 0 -5.476510 -0.000000
CHANNELS 3 Zrotation Xrotation Yrotation
							JOINT LeftWrist
							{
OFFSET 0 -3.090580 -0.000000
CHANNELS 3 Zrotation Xrotation Yrotation
								JOINT lhand
								{
									OFFSET 0 0 0
CHANNELS 3 Zrotation Xrotation Yrotation
									JOINT LFingers
									{
OFFSET 0 -0.771610 -0.000000
CHANNELS 3 Zrotation Xrotation Yrotation
										End Site
										{
OFFSET 0 -0.622090 -0.000000
										}
									}
								}
								JOINT LThumb
								{
OFFSET 0 0.000000 0.000000
CHANNELS 3 Zrotation Xrotation Yrotation
									End Site
									{
OFFSET 0 -0.631590 0.631590
									}
								}
							}
						}
					}
				}
				JOINT RightCollar
				{
					OFFSET 0 0 0
					CHANNELS 3 Zrotation Yrotation Xrotation
					JOINT RightShoulder
					{
						OFFSET -3.38693 1.28904 -0.07093
CHANNELS 3 Zrotation Xrotation Yrotation
						JOINT RightElbow
						{
OFFSET 0 -5.141820 -0.000000
CHANNELS 3 Zrotation Xrotation Yrotation
							JOINT RightWrist
							{
OFFSET 0 -3.355650 -0.000000
CHANNELS 3 Zrotation Xrotation Yrotation
								JOINT rhand
								{
									OFFSET 0 0 0
CHANNELS 3 Zrotation Xrotation Yrotation
									JOINT RFingers
									{
OFFSET 0 -0.801040 -0.000000
CHANNELS 3 Zrotation Xrotation Yrotation
										End Site
										{
OFFSET 0 -0.645820 -0.000000
										}
									}
								}
								JOINT RThumb
								{
OFFSET 0 0.000000 0.000000
CHANNELS 3 Zrotation Xrotation Yrotation
									End Site
									{
OFFSET 0 -0.655680 0.655680
									}
								}
							}
						}
					}
				}
			}
		}
	}
}
MOTION
Frames: 8
Frame Time: 0.008333333333333333
-0.250500 17.768500 -2.745200 1.780900 -1.119100 3.858300 0.000000 0.000000 0.000000 -20.007900 -5.057900 -18.115200 3.007200 10.706700 31.297000 1.011400 3.313500 -20.465000 0.577200 -4.864900 -13.523700 0.000000 0.000000 0.000000 15.470300 8.258400 -20.399400 -3.280900 -11.136500 32.741500 -0.641100 -6.240500 -18.670200 -0.369500 3.904600 -10.808300 -0.787600 2.314400 10.117400 0.091000 2.989700 4.338100 0.208500 1.480900 -1.203400 -6.425600 -4.718700 -0.477900 4.354300 -6.350900 4.573800 2.380600 -3.197400 1.916200 0.000000 0.000000 0.000000 35.416400 -61.742200 -31.448700 32.300400 -42.785400 12.944400 -5.325900 -65.023900 -30.128700 0.000000 0.000000 0.000000 -7.125000 0.000000 0.000000 -38.765600 55.629800 11.335600 0.000000 0.000000 0.000000 -40.825800 -60.674000 9.443400 -21.004700 -31.833800 -6.052400 -5.373100 -62.092300 -11.784000 0.000000 0.000000 0.000000 7.125000 0.000000 -0.000000 15.156600 18.364300 9.964000
-0.264375 17.773113 -2.760067 1.626679 -1.123036 3.953681 0.000000 0.000000 0.000000 -19.780867 -5.083833 -18.400098 3.038434 10.757062 31.464775 0.960845 3.458341 -20.072270 0.576504 -4.862148 -13.515759 0.000000 0.000000 0.000000 15.692491 8.277423 -20.564864 -3.330402 -11.211623 32.996934 -0.663121 -5.864700 -18.623171 -0.267381 3.326372 -9.188782 -0.626740 2.211260 10.208389 0.184618 2.869096 4.427928 0.227036 1.421306 -1.155730 -6.584199 -4.655970 -0.838207 4.130594 -6.232881 4.650701 2.329974 -3.142010 1.995918 0.000000 0.000000 0.000000 36.197935 -61.666931 -30.669456 32.337113 -42.814252 12.969351 -5.099933 -64.685921 -29.978547 0.000000 0.000000 0.000000 -7.125000 0.000000 0.000000 -38.428999 55.555277 11.140414 0.000000 0.000000 0.000000 -41.335058 -60.915908 9.713299 -21.120220 -31.968411 -6.113432 -5.381582 -62.096446 -11.724349 0.000000 0.000000 0.000000 7.125000 0.000000 0.000000 15.155229 18.421739 9.942965
-0.278386 17.768848 -2.761329 1.701775 -1.138130 3.969974 0.000000 0.000000 0.000000 -19.825013 -5.110636 -18.454558 3.054794 10.783227 31.552188 0.956623 3.645957 -20.134723 0.661587 -5.201636 -14.484682 0.000000 0.000000 0.000000 15.639339 8.206668 -20.744337 -3.373389 -11.276342 33.217556 -0.673814 -5.754399 -18.655486 -0.287336 3.446990 -9.525765 -0.713034 2.185212 10.179396 0.164216 2.826411 4.455674 0.260833 1.399196 -1.113798 -6.846672 -4.609500 -0.879438 4.335335 -6.173915 4.785627 2.446335 -3.114066 2.064213 0.000000 0.000000 0.000000 36.736778 -61.630587 -30.267858 32.528109 -42.964155 13.099320 -5.672552 -65.120368 -30.444656 0.000000 0.000000 0.000000 -7.125000 0.000000 0.000000 -39.358921 55.810379 11.734668 0.000000 0.000000 0.000000 -41.666206 -61.028302 9.555879 -21.200977 -32.062201 -6.156290 -5.126574 -61.973277 -11.562692 0.000000 0.000000 0.000000 7.125000 0.000000 0.000000 15.341746 18.587042 10.016232
-0.291417 17.762615 -2.758307 1.699002 -1.116633 3.904378 0.000000 0.000000 0.000000 -19.774146 -5.033266 -18.470407 3.080794 10.824665 31.690850 0.967369 3.520829 -20.167590 0.655809 -5.179738 -14.421833 0.000000 0.000000 0.000000 15.697250 8.134782 -20.786360 -3.409054 -11.329501 33.399272 -0.681393 -5.709690 -18.703430 -0.284436 3.430117 -9.478584 -0.672784 2.221678 10.173706 0.164445 2.878642 4.476936 0.233541 1.425644 -1.087274 -6.830838 -4.649487 -0.767109 4.333989 -6.234521 4.781659 2.443530 -3.145061 2.045734 0.000000 0.000000 0.000000 36.874596 -61.614342 -30.486988 32.990786 -43.322862 13.415792 -5.550895 -65.348755 -30.225889 0.000000 0.000000 0.000000 -7.125000 0.000000 0.000000 -39.055599 55.661896 11.473294 0.000000 0.000000 0.000000 -42.123957 -60.817171 9.569278 -21.530526 -32.442331 -6.332134 -5.363738 -62.401747 -11.599549 0.000000 0.000000 0.000000 7.125000 0.000000 0.000000 15.176790 18.543382 9.915633
-0.301321 17.761125 -2.748804 1.700939 -1.130829 3.841090 0.000000 0.000000 0.000000 -19.749246 -4.948161 -18.420230 3.089525 10.838593 31.737381 0.969747 3.421365 -20.135562 0.600239 -4.959585 -13.793412 0.000000 0.000000 0.000000 15.750863 8.138834 -20.683420 -3.412179 -11.334182 33.415376 -0.682161 -5.724219 -18.722177 -0.295122 3.493411 -9.655559 -0.666089 2.202752 10.125456 0.154316 2.854523 4.458994 0.223551 1.413842 -1.078431 -6.760863 -4.633045 -0.705764 4.319626 -6.217412 4.773799 2.427830 -3.136188 2.027407 0.000000 0.000000 0.000000 37.044451 -61.139226 -30.889908 33.965606 -44.059166 14.089234 -4.883761 -65.508981 -30.107598 0.000000 0.000000 0.000000 -7.125000 0.000000 0.000000 -38.343128 55.701096 11.253480 0.000000 0.000000 0.000000 -41.802235 -60.522168 10.633183 -22.152550 -33.148985 -6.669087 -5.703907 -62.651146 -11.725693 0.000000 0.000000 0.000000 7.125000 0.000000 0.000000 14.934806 18.408971 9.792102
-0.309729 17.771053 -2.735207 1.521095 -0.971696 3.780175 0.000000 0.000000 0.000000 -19.535785 -5.070210 -18.222445 3.071273 10.809516 31.640016 0.959092 3.589313 -20.127210 0.670693 -5.237250 -14.586402 0.000000 0.000000 0.000000 16.031601 8.077452 -20.369080 -3.354069 -11.247305 33.118630 -0.666362 -5.894786 -18.678999 -0.287348 3.447069 -9.526108 -0.490110 2.106218 10.067405 0.259938 2.745729 4.415139 0.247049 1.360851 -1.088347 -6.773978 -4.640429 -0.636805 4.285205 -6.226302 4.583505 2.420939 -3.140940 1.952066 0.000000 0.000000 0.000000 36.895670 -59.964646 -32.203146 36.506443 -45.858182 15.884920 -3.947686 -64.631397 -30.633003 0.000000 0.000000 0.000000 -7.125000 0.000000 0.000000 -37.942444 56.309475 11.698342 0.000000 0.000000 0.000000 -41.230958 -59.434889 13.612668 -24.134267 -35.305809 -7.784056 -7.293763 -63.945579 -11.882415 0.000000 0.000000 0.000000 7.125000 0.000000 0.000000 13.834786 18.194197 9.092426
-0.310961 17.788898 -2.708084 1.622026 -1.044569 3.879216 0.000000 0.000000 0.000000 -19.690125 -5.125952 -17.858789 2.966419 10.640381 31.076524 0.949922 3.813115 -20.164970 0.633135 -5.091078 -14.168464 0.000000 0.000000 0.000000 15.938237 8.129474 -20.152030 -3.280624 -11.135969 32.739889 -0.651372 -6.009804 -18.604727 -0.283548 3.424409 -9.462584 -0.469283 2.208101 9.933500 0.126750 2.880835 4.258422 0.084978 1.429879 -1.170851 -6.447627 -4.815268 -0.781633 4.459201 -6.467805 4.601965 2.409215 -3.251171 1.992684 0.000000 0.000000 0.000000 36.618378 -57.487919 -35.848130 44.241208 -50.385137 21.654359 0.601885 -63.217129 -31.014179 0.000000 0.000000 0.000000 -7.125000 0.000000 0.000000 -34.002466 57.569344 11.330792 0.000000 0.000000 0.000000 -40.426014 -57.003668 18.190550 -28.465691 -39.538677 -10.419883 -8.634827 -64.650236 -12.443179 0.000000 0.000000 0.000000 7.125000 0.000000 0.000000 12.884404 17.582514 8.611729
-0.307569 17.829399 -2.659645 1.653959 -1.347865 4.050581 0.000000 0.000000 0.000000 -19.826446 -4.886117 -17.285763 2.773016 10.318155 30.013424 0.901182 4.271038 -19.967320 0.672317 -5.243060 -14.603169 0.000000 0.000000 0.000000 15.941333 8.306608 -19.524896 -3.083891 -10.829518 31.707162 -0.612500 -6.151892 -18.293975 -0.293187 3.481850 -9.623262 -0.481740 2.261974 9.724158 0.092431 2.951555 4.019416 0.051532 1.465587 -1.303189 -6.326265 -4.897316 -0.690488 4.604291 -6.591203 4.529128 2.434406 -3.308786 1.961226 0.000000 0.000000 0.000000 35.238736 -53.563551 -40.144757 57.581388 -55.620944 32.338651 1.543737 -63.557511 -29.645851 0.000000 0.000000 0.000000 -7.125000 0.000000 0.000000 -31.936978 56.620358 9.787421 0.000000 0.000000 0.000000 -39.392465 -53.124793 25.583496 -37.291294 -46.369732 -16.454143 -10.336783 -67.001799 -13.627117 0.000000 0.000000 0.000000 7.125000 0.000000 0.000000 11.675904 16.317922 8.096622
